<svg width="165" height="111" viewBox="0 0 165 111" fill="none" xmlns="http://www.w3.org/2000/svg">
<path d="M69.6464 60.3535C69.4512 60.1583 69.4512 59.8417 69.6464 59.6464L72.8284 56.4645C73.0237 56.2692 73.3403 56.2692 73.5355 56.4645C73.7308 56.6597 73.7308 56.9763 73.5355 57.1716L70.7071 60L73.5355 62.8284C73.7308 63.0237 73.7308 63.3403 73.5355 63.5355C73.3403 63.7308 73.0237 63.7308 72.8284 63.5355L69.6464 60.3535ZM165 60.5L70 60.5L70 59.5L165 59.5L165 60.5Z" fill="black"/>
<circle cx="55.5" cy="55.5" r="55" transform="matrix(-1 0 0 1 111 0)" stroke="black" stroke-opacity="0.7"/>
</svg>
