<svg width="113" height="164" viewBox="0 0 113 164" fill="none" xmlns="http://www.w3.org/2000/svg">
<path d="M46 111.008C20.3688 106.1 1 83.562 1 56.5C1 25.8482 25.8482 1 56.5 1C87.1518 1 112 25.8482 112 56.5C112 83.7377 92.3789 106.393 66.5 111.101" stroke="black" stroke-opacity="0.7"/>
<path d="M52.6 162.692L52.6 155.456L61 155.456L61 156.632L53.644 156.632L53.644 161.504L61 161.504L61 162.692L52.6 162.692ZM61.096 148.697C61.096 151.277 59.26 153.173 56.8 153.173C54.34 153.173 52.504 151.277 52.504 148.697C52.504 146.141 54.328 144.245 56.8 144.245C59.272 144.245 61.096 146.141 61.096 148.697ZM60.028 148.697C60.028 146.837 58.66 145.445 56.8 145.445C54.94 145.445 53.572 146.837 53.572 148.697C53.572 150.581 54.94 151.973 56.8 151.973C58.66 151.973 60.028 150.581 60.028 148.697ZM61 136.293L57.304 139.017L57.304 140.769L61 140.769L61 141.945L52.6 141.945L52.6 140.769L56.248 140.769L56.248 138.993L52.6 136.353L52.6 135.069L56.668 138.069L61 134.925L61 136.293ZM61 127.068L58.9 127.992L58.9 132.456L61 133.38L61 134.616L52.6 130.812L52.6 129.624L61 125.808L61 127.068ZM57.94 132.036L57.94 128.412L53.824 130.224L57.94 132.036ZM56.62 119.978C56.908 118.934 57.652 118.298 58.648 118.298C60.196 118.298 61.096 119.918 61.096 121.742C61.096 122.822 60.784 123.986 60.088 124.922L59.2 124.502C59.788 123.746 60.064 122.774 60.064 121.886C60.064 120.602 59.5 119.51 58.468 119.51C57.604 119.51 57.148 120.242 57.148 121.478L57.148 123.35L56.176 123.35L56.176 121.562C56.176 120.494 55.708 119.858 54.928 119.858C54.016 119.858 53.5 120.782 53.5 121.934C53.5 122.69 53.716 123.53 54.172 124.274L53.188 124.658C52.696 123.782 52.468 122.81 52.468 121.898C52.468 120.146 53.32 118.646 54.784 118.646C55.648 118.646 56.308 119.15 56.62 119.978ZM61 109.555L58.9 110.479L58.9 114.943L61 115.867L61 117.103L52.6 113.299L52.6 112.111L61 108.295L61 109.555ZM57.94 114.523L57.94 110.899L53.824 112.711L57.94 114.523ZM52.6 101.135L53.644 101.135L53.644 104.015L61 104.015L61 105.191L53.644 105.191L53.644 108.059L52.6 108.059L52.6 101.135ZM55.528 95.6325C55.528 93.6405 56.428 92.5365 58.18 92.5365C60.04 92.5365 61 93.7485 61 95.8485L61 99.3165L52.6 99.3165L52.6 98.1285L55.528 98.1285L55.528 95.6325ZM60.052 95.8965C60.052 94.5045 59.416 93.7365 58.204 93.7365C57.016 93.7365 56.476 94.4925 56.476 95.8965L56.476 98.1285L60.052 98.1285L60.052 95.8965ZM59.956 85.6192L59.956 80.7232L61 80.7232L61 86.8192L52.6 86.8192L52.6 80.8912L53.644 80.8912L53.644 85.6192L56.224 85.6192L56.224 81.4072L57.244 81.4072L57.244 85.6192L59.956 85.6192ZM59.956 67.9547L59.956 66.6947L62.836 66.6947L62.836 67.7987L61 67.7987L61 78.4787L52.6 78.4787L52.6 77.2907L59.956 77.2907L59.956 73.7987L52.6 73.7987L52.6 72.6227L59.956 72.6227L59.956 69.1307L52.6 69.1307L52.6 67.9547L59.956 67.9547ZM51.712 62.8173C51.712 63.1533 51.46 63.4293 51.1 63.4293C50.74 63.4293 50.476 63.1533 50.476 62.8173C50.476 62.4813 50.74 62.2053 51.1 62.2053C51.46 62.2053 51.712 62.4813 51.712 62.8173ZM51.712 60.5853C51.712 60.9213 51.46 61.1973 51.1 61.1973C50.74 61.1973 50.476 60.9213 50.476 60.5853C50.476 60.2493 50.74 59.9733 51.1 59.9733C51.46 59.9733 51.712 60.2493 51.712 60.5853ZM59.956 63.4773L59.956 58.5813L61 58.5813L61 64.6773L52.6 64.6773L52.6 58.7493L53.644 58.7493L53.644 63.4773L56.224 63.4773L56.224 59.2653L57.244 59.2653L57.244 63.4773L59.956 63.4773Z" fill="#3D3D3D"/>
</svg>
