<svg width="53" height="52" viewBox="0 0 53 52" fill="none" xmlns="http://www.w3.org/2000/svg">
<circle cx="26.5928" cy="26" r="26" fill="#D9D9D9" fill-opacity="0.38"/>
<path opacity="0.927" fill-rule="evenodd" clip-rule="evenodd" d="M28.2002 15.9131C33.312 16.0504 36.9464 18.4202 39.1035 23.0225C40.7351 27.5206 40.0287 31.5994 36.9844 35.2588C33.6221 38.6488 29.623 39.7312 24.9873 38.5059C21.5527 37.3498 19.1259 35.1053 17.707 31.7725C17.6163 32.0356 17.4681 32.2521 17.2627 32.4219C16.7983 32.5707 16.5249 32.4112 16.4424 31.9434C16.6979 31.284 16.9827 30.6346 17.2969 29.9951C17.5346 29.7106 17.8194 29.6536 18.1514 29.8242C18.7438 30.0977 19.3362 30.3711 19.9287 30.6445C20.2142 30.9832 20.1914 31.3021 19.8604 31.6016C19.4728 31.6756 19.1195 31.5958 18.8008 31.3623C20.2892 34.8736 22.9211 37.0041 26.6963 37.7539C31.358 38.2881 34.9469 36.5906 37.4629 32.6611C39.551 28.6154 39.2776 24.7416 36.6426 21.04C34.4369 18.3936 31.6 17.0379 28.1318 16.9727C27.7541 16.5869 27.7769 16.2337 28.2002 15.9131Z" fill="#3D3D3D"/>
<path opacity="0.958" fill-rule="evenodd" clip-rule="evenodd" d="M11.3154 17.6222C15.5821 17.5885 19.8433 17.6226 24.0986 17.7247C24.1556 17.7817 24.2126 17.8387 24.2695 17.8956C24.337 20.3624 24.3142 22.8233 24.2012 25.2784C24.1499 25.3212 24.0929 25.3554 24.0303 25.381C19.7692 25.4266 15.5081 25.4266 11.2471 25.381C11.1673 25.3012 11.0876 25.2215 11.0078 25.1417C10.9622 22.7491 10.9622 20.3565 11.0078 17.964C11.0779 17.8145 11.1804 17.7005 11.3154 17.6222ZM12.0674 18.7159C15.7816 18.7159 19.4958 18.7159 23.21 18.7159C23.21 20.5844 23.21 22.4529 23.21 24.3214C19.4958 24.3214 15.7816 24.3214 12.0674 24.3214C12.0674 22.4529 12.0674 20.5844 12.0674 18.7159Z" fill="#3D3D3D"/>
<path opacity="0.927" fill-rule="evenodd" clip-rule="evenodd" d="M28.2687 19.5361C28.5469 19.5522 28.7406 19.6889 28.8498 19.9463C28.9169 22.6164 28.8941 25.2824 28.7814 27.9443C27.0155 29.7103 25.2495 31.4763 23.4836 33.2422C23.1381 33.3853 22.8532 33.3056 22.6291 33.0029C22.5751 32.7887 22.5978 32.5836 22.6974 32.3877C24.3837 30.7015 26.0698 29.0153 27.756 27.3291C27.7788 24.8226 27.8016 22.3161 27.8244 19.8096C27.9469 19.6641 28.095 19.573 28.2687 19.5361Z" fill="#3D3D3D"/>
<path opacity="0.928" fill-rule="evenodd" clip-rule="evenodd" d="M17.331 19.6045C18.955 19.6422 19.6727 20.4625 19.4843 22.0654C18.9217 23.3772 17.9761 23.7532 16.6474 23.1934C15.7452 22.5343 15.506 21.6798 15.9296 20.6299C16.256 20.0859 16.7231 19.7441 17.331 19.6045ZM17.331 20.7666C16.8937 21.0496 16.7683 21.437 16.955 21.9287C17.4928 22.5002 17.9713 22.4546 18.3906 21.792C18.457 21.0268 18.1038 20.685 17.331 20.7666Z" fill="#3D3D3D"/>
</svg>
