<svg width="52" height="52" viewBox="0 0 52 52" fill="none" xmlns="http://www.w3.org/2000/svg">
<circle cx="26" cy="26" r="26" fill="#D9D9D9" fill-opacity="0.38"/>
<path d="M31.7001 18.2801L20.3601 34.0001H19.3201L30.6601 18.2801H31.7001ZM21.2601 25.3601C20.5401 25.3601 19.9201 25.0401 19.4001 24.4001C18.8801 23.7601 18.6201 22.8667 18.6201 21.7201C18.6201 20.5867 18.8868 19.6934 19.4201 19.0401C19.9535 18.3867 20.5668 18.0601 21.2601 18.0601C21.9935 18.0601 22.6135 18.3734 23.1201 19.0001C23.6401 19.6134 23.9001 20.4734 23.9001 21.5801C23.9001 22.7801 23.6468 23.7134 23.1401 24.3801C22.6335 25.0334 22.0068 25.3601 21.2601 25.3601ZM22.1001 24.6201C22.5268 23.9801 22.6935 23.0001 22.6001 21.6801C22.5201 20.4667 22.2601 19.6267 21.8201 19.1601C21.3935 18.6934 20.9335 18.5867 20.4401 18.8401C20.0135 19.5201 19.8401 20.5067 19.9201 21.8001C20.0001 23.0001 20.2601 23.8401 20.7001 24.3201C21.1401 24.7867 21.6068 24.8867 22.1001 24.6201ZM29.7601 34.2001C29.0401 34.2001 28.4201 33.8801 27.9001 33.2401C27.3801 32.6001 27.1201 31.7067 27.1201 30.5601C27.1201 29.4267 27.3868 28.5334 27.9201 27.8801C28.4535 27.2267 29.0668 26.9001 29.7601 26.9001C30.4935 26.9001 31.1135 27.2134 31.6201 27.8401C32.1401 28.4534 32.4001 29.3134 32.4001 30.4201C32.4001 31.6201 32.1468 32.5534 31.6401 33.2201C31.1335 33.8734 30.5068 34.2001 29.7601 34.2001ZM30.6001 33.4601C31.0268 32.8201 31.1935 31.8401 31.1001 30.5201C31.0201 29.3067 30.7601 28.4667 30.3201 28.0001C29.8934 27.5334 29.4335 27.4267 28.9401 27.6801C28.5135 28.3601 28.3401 29.3467 28.4201 30.6401C28.5001 31.8401 28.7601 32.6801 29.2001 33.1601C29.6401 33.6267 30.1068 33.7267 30.6001 33.4601Z" fill="black"/>
</svg>
