<svg width="53" height="52" viewBox="0 0 53 52" fill="none" xmlns="http://www.w3.org/2000/svg">
<circle cx="26.5186" cy="26" r="26" fill="#D9D9D9" fill-opacity="0.38"/>
<g clip-path="url(#clip0_44_545)">
<path opacity="0.939" fill-rule="evenodd" clip-rule="evenodd" d="M28.2698 10.9727C28.8167 10.9727 29.3636 10.9727 29.9104 10.9727C32.3399 11.3902 34.0261 12.7391 34.969 15.0195C35.1805 15.603 35.3082 16.2046 35.3519 16.8242C35.3792 19.7408 35.3883 22.6575 35.3792 25.5742C35.2323 25.5653 35.0864 25.5744 34.9417 25.6016C36.5707 27.137 37.5095 29.0237 37.7581 31.2617C37.7854 32.5741 37.7946 33.8866 37.7854 35.1992C37.4938 35.1992 37.2021 35.1992 36.9104 35.1992C36.9308 33.8308 36.9035 32.4636 36.8284 31.0977C36.3481 28.2118 34.7896 26.1428 32.1526 24.8906C31.8508 24.7627 31.5409 24.6624 31.2229 24.5898C31.2741 24.9888 31.1282 25.2896 30.7854 25.4922C30.2443 25.7221 29.6791 25.8224 29.0901 25.793C28.455 25.8339 27.8535 25.7154 27.2854 25.4375C26.9941 25.2369 26.8665 24.9543 26.9026 24.5898C26.0657 24.8078 25.3001 25.1724 24.6058 25.6836C24.5621 27.1283 24.0335 28.3588 23.0198 29.375C22.7251 29.615 22.4152 29.8338 22.0901 30.0312C24.0475 31.0052 25.1504 32.582 25.3987 34.7617C25.4261 35.8736 25.4352 36.9855 25.4261 38.0977C29.2542 38.0977 33.0823 38.0977 36.9104 38.0977C36.9104 37.4049 36.9104 36.7123 36.9104 36.0195C37.2021 36.0195 37.4938 36.0195 37.7854 36.0195C37.7854 37.0039 37.7854 37.9883 37.7854 38.9727C29.9104 38.9727 22.0354 38.9727 14.1604 38.9727C14.1604 38.2617 14.1604 37.5508 14.1604 36.8398C14.4521 36.8398 14.7438 36.8398 15.0354 36.8398C15.0354 37.2591 15.0354 37.6784 15.0354 38.0977C18.1891 38.0977 21.3427 38.0977 24.4964 38.0977C24.5055 36.9491 24.4964 35.8006 24.469 34.6523C24.2153 32.9589 23.3312 31.7194 21.8167 30.9336C21.8826 31.508 21.6639 31.9181 21.1604 32.1641C20.4793 32.3452 19.7865 32.3999 19.0823 32.3281C18.732 32.2843 18.4039 32.1749 18.0979 32C17.9822 31.9053 17.9001 31.7868 17.8519 31.6445C17.8424 31.4055 17.8151 31.1685 17.7698 30.9336C16.3032 31.6775 15.4191 32.8624 15.1175 34.4883C15.0547 35.0151 15.0274 35.5438 15.0354 36.0742C14.7438 36.0742 14.4521 36.0742 14.1604 36.0742C13.9431 33.3086 15.0551 31.2942 17.4964 30.0312C15.7585 28.9893 14.9473 27.449 15.0628 25.4102C15.3938 23.1651 16.6608 21.7705 18.8636 21.2266C20.3113 20.9755 21.6147 21.2946 22.7737 22.1836C22.7919 20.306 22.8102 18.4284 22.8284 16.5508C23.365 13.4349 25.1787 11.5756 28.2698 10.9727ZM28.5979 11.8477C31.0628 11.7897 32.8584 12.847 33.9847 15.0195C34.2159 15.5435 34.3617 16.0903 34.4222 16.6602C34.4495 19.3216 34.4586 21.983 34.4495 24.6445C34.1755 24.6536 33.902 24.6445 33.6292 24.6172C32.8776 24.1821 32.0847 23.8449 31.2503 23.6055C31.2049 23.2758 31.214 22.9477 31.2776 22.6211C33.158 21.522 33.9965 19.8814 33.7933 17.6992C33.1761 17.6917 32.6931 17.4365 32.344 16.9336C31.939 16.2432 31.7476 15.4958 31.7698 14.6914C31.4829 14.6512 31.2004 14.5965 30.9222 14.5273C30.2904 15.7788 29.3152 16.6447 27.9964 17.125C26.8109 17.5443 25.5895 17.7175 24.3323 17.6445C24.1311 19.5104 24.7509 21.0325 26.1917 22.2109C26.4032 22.3585 26.6219 22.4952 26.8479 22.6211C26.9116 22.9477 26.9207 23.2758 26.8753 23.6055C26.0036 23.8535 25.1833 24.2181 24.4144 24.6992C24.2513 24.1726 24.0143 23.6804 23.7034 23.2227C23.6527 20.9612 23.6709 18.7008 23.7581 16.4414C24.3366 13.8119 25.9499 12.2806 28.5979 11.8477ZM30.9495 16.1133C31.157 16.6923 31.4396 17.2391 31.7972 17.7539C32.1103 18.052 32.4658 18.2889 32.8636 18.4648C32.839 20.0853 32.0916 21.2428 30.6214 21.9375C28.5765 22.6351 26.9449 22.0974 25.7269 20.3242C25.4264 19.7783 25.2532 19.195 25.2073 18.5742C26.9667 18.5497 28.5709 18.0484 30.0198 17.0703C30.3787 16.7935 30.6886 16.4745 30.9495 16.1133ZM19.6292 22.0195C20.5946 22.0223 21.4513 22.323 22.1995 22.9219C21.5011 23.491 20.7172 23.6551 19.8479 23.4141C19.6196 23.3274 19.4191 23.1998 19.2464 23.0312C18.9722 23.0176 18.6987 23.0358 18.4261 23.0859C18.2426 23.3332 18.0057 23.5155 17.7151 23.6328C17.3542 23.7146 16.9897 23.7328 16.6214 23.6875C17.3859 22.6936 18.3886 22.1376 19.6292 22.0195ZM27.8323 23.0039C28.6347 23.2205 29.4368 23.2205 30.2386 23.0039C30.3023 23.5681 30.3114 24.1333 30.2659 24.6992C29.4783 24.9798 28.6853 24.989 27.887 24.7266C27.833 24.1568 27.8148 23.5826 27.8323 23.0039ZM22.8011 23.5508C23.7719 24.9016 23.8722 26.3235 23.1019 27.8164C22.0434 29.3848 20.585 29.9681 18.7269 29.5664C16.752 28.8303 15.8406 27.4084 15.9925 25.3008C16.0307 25.0566 16.0945 24.8196 16.1839 24.5898C16.2112 24.5716 16.2386 24.5534 16.2659 24.5352C17.2493 24.7755 18.1425 24.5932 18.9456 23.9883C20.1936 24.6211 21.4058 24.5573 22.5823 23.7969C22.6666 23.7219 22.7395 23.6399 22.8011 23.5508ZM18.7542 30.4961C19.4378 30.6412 20.1214 30.6412 20.805 30.4961C20.8503 30.7713 20.8412 31.0448 20.7776 31.3164C20.1431 31.5227 19.5051 31.5318 18.8636 31.3438C18.7589 31.0781 18.7224 30.7955 18.7542 30.4961Z" fill="#3D3D3D"/>
<path opacity="0.89" fill-rule="evenodd" clip-rule="evenodd" d="M17.6055 34.6523C17.9154 34.6523 18.2252 34.6523 18.5352 34.6523C18.5352 34.944 18.5352 35.2357 18.5352 35.5273C18.2252 35.5273 17.9154 35.5273 17.6055 35.5273C17.6055 35.2357 17.6055 34.944 17.6055 34.6523Z" fill="#3D3D3D"/>
<path opacity="0.946" fill-rule="evenodd" clip-rule="evenodd" d="M19.3555 34.6523C19.6471 34.6523 19.9388 34.6523 20.2305 34.6523C20.2305 34.944 20.2305 35.2357 20.2305 35.5273C19.9388 35.5273 19.6471 35.5273 19.3555 35.5273C19.3555 35.2357 19.3555 34.944 19.3555 34.6523Z" fill="#3D3D3D"/>
<path opacity="0.946" fill-rule="evenodd" clip-rule="evenodd" d="M21.0508 34.6523C21.3424 34.6523 21.6341 34.6523 21.9258 34.6523C21.9258 34.944 21.9258 35.2357 21.9258 35.5273C21.6341 35.5273 21.3424 35.5273 21.0508 35.5273C21.0508 35.2357 21.0508 34.944 21.0508 34.6523Z" fill="#3D3D3D"/>
</g>
<defs>
<clipPath id="clip0_44_545">
<rect width="28" height="28" fill="white" transform="translate(12 11)"/>
</clipPath>
</defs>
</svg>
