<svg width="34" height="34" viewBox="0 0 34 34" fill="none" xmlns="http://www.w3.org/2000/svg">
<circle cx="17" cy="17" r="17" fill="#EDEDED"/>
<g clip-path="url(#clip0_165_1857)">
<path opacity="0.946" fill-rule="evenodd" clip-rule="evenodd" d="M19.793 6.98047C20.3919 6.98047 20.9909 6.98047 21.5898 6.98047C21.8315 7.06236 22.0529 7.18606 22.2539 7.35156C23.7719 8.85655 25.2758 10.3735 26.7656 11.9023C26.8495 12.0576 26.9211 12.2139 26.9805 12.3711C26.9805 12.97 26.9805 13.569 26.9805 14.168C26.8952 14.4294 26.7584 14.6638 26.5703 14.8711C25.9648 15.4766 25.3594 16.082 24.7539 16.6875C24.5333 16.8694 24.2859 16.9996 24.0117 17.0781C23.4388 17.1042 22.8659 17.1042 22.293 17.0781C22.0952 17.0366 21.9129 16.9585 21.7461 16.8438C21.5573 16.655 21.3685 16.4661 21.1797 16.2773C20.5045 17.1453 19.8014 17.9917 19.0703 18.8164C18.1737 19.6482 17.2427 20.4359 16.2773 21.1797C16.4661 21.3685 16.655 21.5573 16.8438 21.7461C16.9585 21.9129 17.0366 22.0952 17.0781 22.293C17.1042 22.8659 17.1042 23.4388 17.0781 24.0117C16.9996 24.2859 16.8694 24.5333 16.6875 24.7539C16.0158 25.4386 15.3322 26.1092 14.6367 26.7656C14.4814 26.8495 14.3252 26.9211 14.168 26.9805C13.569 26.9805 12.97 26.9805 12.3711 26.9805C12.1295 26.8986 11.9081 26.7749 11.707 26.6094C10.189 25.1044 8.68511 23.5875 7.19531 22.0586C7.11147 21.9033 7.03986 21.7471 6.98047 21.5898C6.98047 20.9909 6.98047 20.3919 6.98047 19.793C7.06578 19.5316 7.2025 19.2972 7.39062 19.0898C7.99609 18.4844 8.60156 17.8789 9.20703 17.2734C9.42768 17.0915 9.67507 16.9613 9.94922 16.8828C10.5221 16.8568 11.095 16.8568 11.668 16.8828C11.8658 16.9243 12.0481 17.0025 12.2148 17.1172C12.4036 17.306 12.5925 17.4948 12.7812 17.6836C13.7037 16.4093 14.7519 15.2439 15.9258 14.1875C16.5046 13.7094 17.0905 13.2406 17.6836 12.7812C17.4948 12.5925 17.306 12.4036 17.1172 12.2148C17.0025 12.0481 16.9243 11.8658 16.8828 11.668C16.8568 11.095 16.8568 10.5221 16.8828 9.94922C16.9613 9.67507 17.0915 9.42768 17.2734 9.20703C17.9451 8.52231 18.6287 7.85173 19.3242 7.19531C19.4795 7.11147 19.6357 7.03986 19.793 6.98047ZM20.0273 7.76172C20.4702 7.75521 20.913 7.76172 21.3555 7.78125C21.46 7.79099 21.5512 7.83005 21.6289 7.89844C23.1469 9.40343 24.6508 10.9204 26.1406 12.4492C26.2009 12.7853 26.2139 13.1238 26.1797 13.4648C25.6393 12.9245 25.0989 12.3841 24.5586 11.8438C24.2007 11.6881 23.9793 11.7988 23.8945 12.1758C23.9167 12.2911 23.9623 12.3953 24.0312 12.4883C24.6568 13.1073 25.2753 13.7323 25.8867 14.3633C25.2664 15.0292 24.6154 15.6607 23.9336 16.2578C23.4798 16.3185 23.0241 16.3315 22.5664 16.2969C22.4184 16.2879 22.2881 16.2358 22.1758 16.1406C20.7239 14.6888 19.2721 13.237 17.8203 11.7852C17.7812 11.72 17.7422 11.655 17.7031 11.5898C17.6424 11.1361 17.6294 10.6803 17.6641 10.2227C17.6754 10.1269 17.7014 10.0357 17.7422 9.94922C18.3986 9.25371 19.0692 8.57012 19.7539 7.89844C19.8486 7.85107 19.9398 7.8055 20.0273 7.76172ZM18.2305 13.3477C19.0299 14.1275 19.8242 14.9153 20.6133 15.7109C19.9818 16.4727 19.3503 17.2344 18.7188 17.9961C18.3725 18.3554 18.0145 18.7004 17.6445 19.0312C16.9886 19.5438 16.3441 20.0712 15.7109 20.6133C14.9232 19.8255 14.1354 19.0378 13.3477 18.25C13.9922 17.4753 14.6367 16.7005 15.2812 15.9258C15.6145 15.5795 15.9595 15.2475 16.3164 14.9297C16.9716 14.4203 17.6096 13.8929 18.2305 13.3477ZM10.2227 17.6445C10.6135 17.638 11.0041 17.6445 11.3945 17.6641C11.5426 17.673 11.6728 17.7251 11.7852 17.8203C13.237 19.2721 14.6888 20.7239 16.1406 22.1758C16.1797 22.2409 16.2188 22.306 16.2578 22.3711C16.3185 22.8249 16.3315 23.2806 16.2969 23.7383C16.2855 23.8341 16.2595 23.9252 16.2188 24.0117C15.5339 24.7616 14.8113 25.4713 14.0508 26.1406C13.5718 26.2034 13.09 26.2164 12.6055 26.1797C12.5009 26.17 12.4098 26.1309 12.332 26.0625C10.814 24.5575 9.31011 23.0406 7.82031 21.5117C7.76006 21.1756 7.74704 20.8371 7.78125 20.4961C8.32161 21.0364 8.86198 21.5768 9.40234 22.1172C9.76024 22.2729 9.98159 22.1621 10.0664 21.7852C10.0442 21.6698 9.99866 21.5657 9.92969 21.4727C9.30414 20.8536 8.68565 20.2286 8.07422 19.5977C8.6531 18.9993 9.23904 18.4068 9.83203 17.8203C9.9517 17.7277 10.0819 17.6691 10.2227 17.6445Z" fill="#3D3D3D"/>
</g>
<defs>
<clipPath id="clip0_165_1857">
<rect width="20" height="20" fill="white" transform="translate(7 7)"/>
</clipPath>
</defs>
</svg>
