<svg width="34" height="34" viewBox="0 0 34 34" fill="none" xmlns="http://www.w3.org/2000/svg">
<circle cx="17" cy="17" r="17" fill="#EDEDED"/>
<path opacity="0.922" fill-rule="evenodd" clip-rule="evenodd" d="M15.9335 6.74609C19.5248 6.51138 22.5053 7.73273 24.8749 10.4102C27.3537 13.6538 27.8641 17.1903 26.4062 21.0195C24.7375 24.601 21.9394 26.6518 18.0116 27.1719C14.2687 27.446 11.2152 26.1426 8.85148 23.2617C6.7556 20.3867 6.20873 17.233 7.21086 13.8008C8.35018 10.5469 10.5468 8.35025 13.8007 7.21093C14.5062 6.99522 15.2172 6.84027 15.9335 6.74609ZM16.8085 7.51171C20.9147 7.66295 23.8587 9.57699 25.6405 13.2539C27.025 16.8848 26.4964 20.2025 24.0546 23.207C21.5577 25.836 18.5225 26.8294 14.9491 26.1875C11.5571 25.3294 9.25114 23.2603 8.03117 19.9805C6.84958 15.7266 7.95245 12.1993 11.3398 9.39843C12.9758 8.21811 14.7988 7.5892 16.8085 7.51171Z" fill="#3D3D3D"/>
<path opacity="0.931" fill-rule="evenodd" clip-rule="evenodd" d="M15.332 11.5039C16.426 11.4948 17.5197 11.5039 18.6133 11.5313C18.8959 11.6315 19.0873 11.8229 19.1875 12.1055C19.2149 12.9803 19.224 13.8553 19.2149 14.7305C20.09 14.7213 20.965 14.7305 21.8399 14.7578C22.1224 14.8581 22.3138 15.0495 22.4141 15.332C22.4506 16.4258 22.4506 17.5195 22.4141 18.6133C22.3138 18.8959 22.1224 19.0873 21.8399 19.1875C20.965 19.2149 20.09 19.224 19.2149 19.2149C19.224 20.09 19.2149 20.965 19.1875 21.8399C19.0873 22.1224 18.8959 22.3138 18.6133 22.4141C17.5195 22.4505 16.4258 22.4505 15.332 22.4141C15.0495 22.3138 14.8581 22.1224 14.7578 21.8399C14.7305 20.965 14.7213 20.09 14.7305 19.2149C13.8553 19.224 12.9803 19.2149 12.1055 19.1875C11.8229 19.0873 11.6315 18.8959 11.5313 18.6133C11.4948 17.5195 11.4948 16.4258 11.5313 15.332C11.6315 15.0495 11.8229 14.8581 12.1055 14.7578C12.9803 14.7305 13.8553 14.7213 14.7305 14.7305C14.7213 13.8553 14.7305 12.9803 14.7578 12.1055C14.8683 11.8219 15.0597 11.6214 15.332 11.5039ZM15.5508 12.3242C15.5599 13.3088 15.5508 14.2931 15.5235 15.2774C15.498 15.3556 15.4524 15.4194 15.3867 15.4688C14.371 15.5494 13.3502 15.5767 12.3242 15.5508C12.3242 16.4987 12.3242 17.4466 12.3242 18.3945C13.3088 18.3854 14.2931 18.3945 15.2774 18.4219C15.3556 18.4473 15.4194 18.4929 15.4688 18.5586C15.5494 19.5743 15.5767 20.5952 15.5508 21.6211C16.4987 21.6211 17.4466 21.6211 18.3945 21.6211C18.3854 20.6366 18.3945 19.6522 18.4219 18.668C18.4473 18.5897 18.4929 18.526 18.5586 18.4766C19.5743 18.396 20.5952 18.3686 21.6211 18.3945C21.6211 17.4466 21.6211 16.4987 21.6211 15.5508C20.6366 15.5599 19.6522 15.5508 18.668 15.5234C18.5897 15.498 18.526 15.4524 18.4766 15.3867C18.396 14.371 18.3686 13.3502 18.3945 12.3242C17.4466 12.3242 16.4987 12.3242 15.5508 12.3242Z" fill="#3D3D3D"/>
</svg>
