<svg width="34" height="34" viewBox="0 0 34 34" fill="none" xmlns="http://www.w3.org/2000/svg">
<circle cx="17" cy="17" r="17" fill="#EDEDED"/>
<path opacity="0.945" fill-rule="evenodd" clip-rule="evenodd" d="M11.4451 8.96094C13.1161 8.80184 14.6942 9.10653 16.1795 9.875C16.4515 10.0455 16.7172 10.2252 16.9764 10.4141C18.0826 9.57377 19.3326 9.09721 20.7264 8.98437C21.9092 8.90569 23.0811 8.98382 24.242 9.21875C24.9299 9.30389 25.1799 9.68671 24.992 10.3672C25.4471 10.4222 25.9002 10.4925 26.3514 10.5781C26.453 10.6172 26.5233 10.6875 26.5623 10.7891C26.609 15.2147 26.5934 19.6366 26.5155 24.0547C26.4224 24.1598 26.3052 24.2067 26.1639 24.1953C24.5679 23.8891 22.9585 23.7719 21.3358 23.8437C20.875 23.8783 20.4219 23.9564 19.9764 24.0781C19.2686 24.3305 18.5655 24.596 17.867 24.875C17.2733 25.0312 16.6795 25.0312 16.0858 24.875C15.4414 24.6342 14.8008 24.3842 14.1639 24.125C12.9932 23.8368 11.8058 23.7431 10.6014 23.8437C9.65928 23.9237 8.72178 24.0409 7.7889 24.1953C7.6476 24.2067 7.53041 24.1598 7.43733 24.0547C7.35945 19.6366 7.34382 15.2147 7.39046 10.7891C7.42952 10.6875 7.49983 10.6172 7.6014 10.5781C8.05337 10.4976 8.50649 10.4273 8.96077 10.3672C8.95299 10.1167 8.9608 9.8667 8.98421 9.61719C9.02098 9.53347 9.07567 9.46316 9.14827 9.40625C9.90005 9.15611 10.6657 9.00767 11.4451 8.96094ZM11.492 9.80469C13.3554 9.61216 15.0351 10.0653 16.5311 11.1641C16.5701 14.8048 16.5624 18.4454 16.5076 22.0859C14.9501 21.1478 13.2626 20.7806 11.4451 20.9844C10.907 21.0087 10.3758 21.079 9.8514 21.1953C9.79669 17.4923 9.78891 13.7892 9.82796 10.0859C10.3807 9.95164 10.9353 9.85789 11.492 9.80469ZM20.8201 9.80469C21.1327 9.80469 21.4451 9.80469 21.7576 9.80469C21.7655 10.9142 21.7576 12.0236 21.7342 13.1328C21.5701 12.9687 21.4061 12.8047 21.242 12.6406C21.0919 12.5711 20.9356 12.5555 20.7733 12.5937C20.5936 12.7734 20.4139 12.9531 20.2342 13.1328C20.2108 12.0548 20.2029 10.9767 20.2108 9.89844C20.423 9.88578 20.6261 9.85452 20.8201 9.80469ZM22.6014 9.85156C23.1198 9.87158 23.6276 9.94972 24.1248 10.0859C24.1639 13.7892 24.1561 17.4923 24.1014 21.1953C22.5872 20.8981 21.0716 20.8902 19.5545 21.1719C18.8043 21.3723 18.1012 21.677 17.4451 22.0859C17.3904 18.4454 17.3827 14.8048 17.4217 11.1641C17.9878 10.7051 18.6206 10.3614 19.3201 10.1328C19.3443 11.5741 19.3833 13.0116 19.4373 14.4453C19.5938 14.5774 19.7735 14.6165 19.9764 14.5625C20.3266 14.2593 20.6625 13.939 20.9842 13.6016C21.2889 13.9062 21.5936 14.2109 21.8983 14.5156C22.0484 14.5851 22.2046 14.6008 22.367 14.5625C22.4755 14.5105 22.5458 14.4245 22.578 14.3047C22.6014 12.8204 22.6092 11.336 22.6014 9.85156ZM8.86702 11.2109C8.93768 14.8082 8.99237 18.4176 9.03108 22.0391C9.12416 22.1442 9.24135 22.191 9.38265 22.1797C10.8489 21.7946 12.3333 21.7087 13.8358 21.9219C14.8992 22.1255 15.8367 22.5787 16.6483 23.2812C16.867 23.4375 17.0858 23.4375 17.3045 23.2812C18.5515 22.2536 19.9891 21.7614 21.617 21.8047C22.6196 21.7953 23.604 21.9202 24.5701 22.1797C24.7114 22.191 24.8286 22.1442 24.9217 22.0391C24.9761 18.4334 25.0152 14.824 25.0389 11.2109C25.2557 11.2565 25.4745 11.2955 25.6951 11.3281C25.7419 15.3014 25.7576 19.2779 25.742 23.2578C24.2519 23.006 22.7519 22.9201 21.242 23C20.7519 23.0432 20.2675 23.1214 19.7889 23.2344C19.0291 23.4893 18.2791 23.7705 17.5389 24.0781C17.1639 24.1719 16.7889 24.1719 16.4139 24.0781C15.7681 23.8411 15.1274 23.5911 14.492 23.3281C13.184 22.9943 11.8559 22.885 10.5076 23C9.73941 23.0667 8.97381 23.1527 8.21077 23.2578C8.20296 19.289 8.21077 15.3203 8.23421 11.3516C8.45089 11.3109 8.66183 11.264 8.86702 11.2109Z" fill="#3D3D3D"/>
</svg>
