<svg width="34" height="34" viewBox="0 0 34 34" fill="none" xmlns="http://www.w3.org/2000/svg">
<circle cx="17" cy="17" r="17" fill="#EDEDED"/>
<path opacity="0.949" fill-rule="evenodd" clip-rule="evenodd" d="M22.2686 8.53809C22.6702 8.4847 22.8557 8.65788 22.8252 9.05763C22.726 11.3216 22.6208 13.5853 22.5098 15.8486C22.485 15.8981 22.4603 15.9476 22.4355 15.9971C19.1973 17.0889 15.9502 18.1588 12.6943 19.207C12.2495 19.602 11.8599 20.0412 11.5254 20.5244C11.2598 21.0242 11.099 21.5561 11.043 22.1201C10.7859 22.3805 10.5633 22.3557 10.375 22.0459C10.3998 21.1304 10.6967 20.314 11.2656 19.5967C11.5625 19.2998 11.8594 19.0029 12.1562 18.7061C13.2054 15.4597 14.2692 12.2189 15.3477 8.98341C15.3966 8.90965 15.4646 8.86636 15.5518 8.85352C17.7968 8.75331 20.0358 8.64817 22.2686 8.53809ZM21.1924 9.31739C21.3044 9.31128 21.4157 9.31747 21.5264 9.33595C20.6543 10.208 19.7822 11.0801 18.9102 11.9522C18.1123 11.1543 17.3145 10.3565 16.5166 9.5586C18.0807 9.47531 19.6393 9.39491 21.1924 9.31739ZM22.0088 9.87403C22.0334 9.95349 22.0458 10.0401 22.0459 10.1338C21.9809 11.7065 21.9005 13.2774 21.8047 14.8467C21.0125 14.0607 20.227 13.269 19.4482 12.4717C20.3025 11.605 21.1561 10.7391 22.0088 9.87403ZM15.8115 9.91114C16.6766 10.7515 17.5301 11.605 18.3721 12.4717C16.7027 14.1596 15.0265 15.842 13.3438 17.5186C14.1468 14.9794 14.9694 12.4436 15.8115 9.91114ZM18.8916 12.9912C19.7567 13.8316 20.6102 14.6851 21.4521 15.5518C18.9341 16.4015 16.4106 17.2241 13.8818 18.0195C15.5592 16.3483 17.2291 14.6722 18.8916 12.9912Z" fill="#3D3D3D"/>
<path opacity="0.939" fill-rule="evenodd" clip-rule="evenodd" d="M21.5259 19.708C22.4764 19.6638 23.2742 19.9854 23.9194 20.6729C24.2282 21.1034 24.3829 21.5859 24.3833 22.1201C24.3879 22.7951 24.2085 23.4136 23.8452 23.9756C23.3822 24.5195 22.7946 24.7855 22.0825 24.7735C21.8495 24.5755 21.8371 24.3652 22.0454 24.1426C23.1208 23.9362 23.6527 23.2806 23.6411 22.1758C23.6147 21.2462 23.1446 20.6896 22.231 20.5059C21.7435 20.4237 21.261 20.4485 20.7837 20.5801C20.4397 20.7382 20.1491 20.967 19.9116 21.2666C19.3636 22.0528 18.8812 22.8816 18.4644 23.7529C17.3687 25.8871 15.6431 26.7097 13.2876 26.2207C12.4099 25.9523 11.6987 25.4513 11.1538 24.7178C11.0921 24.3466 11.2468 24.1796 11.6177 24.2168C11.8904 24.5142 12.1872 24.7863 12.5083 25.0332C13.9015 25.9044 15.2746 25.8673 16.6275 24.9219C17.0495 24.5741 17.3897 24.1597 17.648 23.6787C18.0838 22.8687 18.5292 22.0647 18.9839 21.2666C19.286 20.7803 19.6756 20.3783 20.1528 20.0606C20.5911 19.8507 21.0487 19.7332 21.5259 19.708Z" fill="#3D3D3D"/>
<path opacity="0.88" fill-rule="evenodd" clip-rule="evenodd" d="M10.8018 22.9365C11.1367 22.956 11.2666 23.1292 11.1915 23.4561C11.0938 23.6502 10.9392 23.7182 10.7276 23.6602C10.5034 23.5211 10.4477 23.3293 10.5606 23.085C10.6353 23.0201 10.7157 22.9706 10.8018 22.9365Z" fill="#3D3D3D"/>
</svg>
