<svg width="34" height="34" viewBox="0 0 34 34" fill="none" xmlns="http://www.w3.org/2000/svg">
<circle cx="17" cy="17" r="17" fill="#EDEDED"/>
<g clip-path="url(#clip0_165_1862)">
<path opacity="0.928" fill-rule="evenodd" clip-rule="evenodd" d="M21.7459 7.05859C22.2924 6.98688 22.7872 7.11057 23.2303 7.42968C23.8342 7.92922 24.3225 8.52167 24.6951 9.20702C26.0911 11.8353 26.8203 14.6348 26.8826 17.6055C26.5439 19.6239 25.4046 20.9585 23.4647 21.6094C23.1323 21.7058 22.7938 21.7644 22.449 21.7852C22.449 23.4909 22.449 25.1966 22.449 26.9023C22.2147 26.9023 21.9803 26.9023 21.7459 26.9023C21.7459 25.1966 21.7459 23.4909 21.7459 21.7852C19.7076 21.5509 18.3079 20.4832 17.5467 18.582C17.3675 18.0566 17.2828 17.5162 17.2928 16.9609C17.4746 14.6185 18.041 12.3724 18.992 10.2226C19.3332 9.44822 19.7629 8.73208 20.2811 8.07421C20.6715 7.58477 21.1598 7.24623 21.7459 7.05859ZM21.9022 7.72265C22.3169 7.70234 22.6815 7.82604 22.9959 8.09374C23.6372 8.73123 24.1386 9.46691 24.4998 10.3008C25.389 12.2691 25.962 14.3263 26.2186 16.4726C26.3448 18.3102 25.6222 19.6969 24.0506 20.6328C23.5486 20.8826 23.0213 21.0454 22.4686 21.1211C22.4425 19.8841 22.4425 18.6471 22.4686 17.4101C22.9639 16.9213 23.4522 16.4265 23.9334 15.9258C23.7902 15.7565 23.6339 15.6003 23.4647 15.457C23.1267 15.7755 22.7947 16.101 22.4686 16.4336C22.449 15.8608 22.4425 15.2879 22.449 14.7148C22.2147 14.7148 21.9803 14.7148 21.7459 14.7148C21.7524 16.1472 21.7459 17.5795 21.7264 19.0117C21.3878 18.6732 21.0493 18.3346 20.7107 17.9961C20.5461 18.1476 20.3964 18.3103 20.2615 18.4844C20.7352 18.9971 21.2234 19.4984 21.7264 19.9883C21.7524 20.3659 21.7524 20.7435 21.7264 21.1211C19.7095 20.7969 18.4725 19.6381 18.0154 17.6445C17.9394 17.0442 17.9524 16.4453 18.0545 15.8476C18.395 13.6412 19.0721 11.5449 20.0857 9.55859C20.3688 9.028 20.7268 8.55274 21.16 8.13281C21.3876 7.95403 21.635 7.81731 21.9022 7.72265Z" fill="#3D3D3D"/>
<path opacity="0.965" fill-rule="evenodd" clip-rule="evenodd" d="M7.68359 21.4336C7.90495 21.4336 8.1263 21.4336 8.34766 21.4336C8.34766 21.655 8.34766 21.8763 8.34766 22.0977C10.8997 22.0977 13.4518 22.0977 16.0039 22.0977C16.0039 21.8763 16.0039 21.655 16.0039 21.4336C16.2253 21.4336 16.4466 21.4336 16.668 21.4336C16.668 22.7227 16.668 24.0117 16.668 25.3008C16.8893 25.3008 17.1107 25.3008 17.332 25.3008C17.332 25.5221 17.332 25.7435 17.332 25.9648C17.1107 25.9648 16.8893 25.9648 16.668 25.9648C16.668 26.2773 16.668 26.5898 16.668 26.9023C16.4466 26.9023 16.2253 26.9023 16.0039 26.9023C16.0039 26.5898 16.0039 26.2773 16.0039 25.9648C13.4518 25.9648 10.8997 25.9648 8.34766 25.9648C8.34766 26.2773 8.34766 26.5898 8.34766 26.9023C8.1263 26.9023 7.90495 26.9023 7.68359 26.9023C7.68359 26.5898 7.68359 26.2773 7.68359 25.9648C7.47526 25.9648 7.26693 25.9648 7.05859 25.9648C7.05859 25.7435 7.05859 25.5221 7.05859 25.3008C7.26693 25.3008 7.47526 25.3008 7.68359 25.3008C7.68359 24.0117 7.68359 22.7227 7.68359 21.4336ZM8.34766 22.7617C10.8997 22.7617 13.4518 22.7617 16.0039 22.7617C16.0039 23.0742 16.0039 23.3867 16.0039 23.6992C13.4518 23.6992 10.8997 23.6992 8.34766 23.6992C8.34766 23.3867 8.34766 23.0742 8.34766 22.7617ZM8.34766 24.3633C10.8997 24.3633 13.4518 24.3633 16.0039 24.3633C16.0039 24.6758 16.0039 24.9883 16.0039 25.3008C13.4518 25.3008 10.8997 25.3008 8.34766 25.3008C8.34766 24.9883 8.34766 24.6758 8.34766 24.3633Z" fill="#3D3D3D"/>
</g>
<defs>
<clipPath id="clip0_165_1862">
<rect width="20" height="20" fill="white" transform="translate(7 7)"/>
</clipPath>
</defs>
</svg>
