<svg width="34" height="34" viewBox="0 0 34 34" fill="none" xmlns="http://www.w3.org/2000/svg">
<circle cx="17" cy="17" r="17" fill="#EDEDED"/>
<path opacity="0.935" fill-rule="evenodd" clip-rule="evenodd" d="M16.2485 8.12696C19.3911 7.94909 21.9763 9.05196 24.0044 11.4355C24.8369 12.5278 25.417 13.7452 25.7446 15.0879C27.0589 15.0771 27.7894 15.7287 27.936 17.043C27.779 18.3891 27.0271 19.0408 25.6801 18.998C24.9195 21.9304 23.1507 24 20.3735 25.207C17.3672 26.3005 14.5313 25.9711 11.8657 24.2188C10.0577 22.9173 8.8975 21.1771 8.38522 18.998C7.38138 19.1156 6.64375 18.7289 6.17233 17.8379C5.8653 16.9665 6.03002 16.2003 6.66647 15.5391C7.15732 15.1406 7.71591 14.9902 8.34225 15.0879C9.01289 12.2043 10.6887 10.1347 13.3696 8.87891C14.2975 8.48586 15.2571 8.2352 16.2485 8.12696ZM16.893 8.90039C18.2157 9.06962 18.8101 9.81441 18.6762 11.1348C18.4429 11.7617 17.9917 12.1054 17.3227 12.166C16.6196 12.1146 16.2329 11.735 16.1626 11.0273C16.2432 10.4449 16.5726 10.1585 17.1508 10.168C17.4386 10.2922 17.5318 10.4999 17.4301 10.791C17.2594 10.9551 17.0732 11.0983 16.8715 11.2207C16.746 11.561 16.8606 11.7615 17.2153 11.8223C17.9752 11.6057 18.319 11.1043 18.2465 10.3184C17.9909 9.5995 17.4825 9.29155 16.7212 9.39453C15.874 9.6206 15.4299 10.172 15.3891 11.0488C15.4951 12.2219 16.1325 12.8521 17.3012 12.9395C18.1548 12.9211 18.7993 12.5487 19.2348 11.8223C19.5091 11.2753 19.5807 10.7024 19.4497 10.1035C19.3412 9.773 19.2123 9.4579 19.063 9.15821C21.5481 9.86734 23.3528 11.3856 24.477 13.7129C24.7556 14.3625 24.9561 15.0357 25.0786 15.7324C25.1313 15.8281 25.2101 15.8925 25.3149 15.9258C25.5371 15.9224 25.7592 15.9009 25.9809 15.8613C26.7 15.943 27.0939 16.3441 27.1626 17.0645C27.0942 17.7844 26.7004 18.1855 25.9809 18.2676C25.7822 18.2483 25.5888 18.2054 25.4008 18.1387C25.2777 18.168 25.1703 18.2253 25.0786 18.3105C24.4433 21.3235 22.7031 23.4075 19.8579 24.5625C16.6432 25.5926 13.7929 24.9767 11.3071 22.7148C10.0925 21.4533 9.31192 19.9566 8.9653 18.2246C8.87513 18.1581 8.77488 18.1151 8.66451 18.0957C8.03598 18.4204 7.49171 18.3058 7.0317 17.752C6.67868 17.0816 6.80043 16.5158 7.39694 16.0547C7.81511 15.8073 8.23764 15.8001 8.66451 16.0332C8.78616 16.0135 8.88642 15.9562 8.9653 15.8613C9.44632 13.3059 10.7855 11.3509 12.9829 9.9961C14.2074 9.32742 15.5108 8.96219 16.893 8.90039Z" fill="#3D3D3D"/>
<path opacity="0.924" fill-rule="evenodd" clip-rule="evenodd" d="M13.2833 14.1855C14.3795 14.146 14.9954 14.6688 15.1309 15.7539C15.0732 16.1123 14.8727 16.2269 14.5294 16.0977C14.4628 16.0455 14.4127 15.981 14.379 15.9043C14.327 15.2069 13.9618 14.9133 13.2833 15.0234C12.9343 15.2265 12.7553 15.5344 12.7462 15.9473C12.5336 16.216 12.3044 16.2303 12.0587 15.9902C11.937 15.3674 12.1304 14.8589 12.6387 14.4648C12.8479 14.3456 13.0627 14.2525 13.2833 14.1855Z" fill="#3D3D3D"/>
<path opacity="0.925" fill-rule="evenodd" clip-rule="evenodd" d="M19.9865 14.1855C20.9153 14.1302 21.5097 14.5456 21.7697 15.4316C21.7983 15.6178 21.7983 15.804 21.7697 15.9902C21.5259 16.2309 21.2968 16.2166 21.0822 15.9473C21.082 15.3864 20.8099 15.057 20.2657 14.959C19.7341 15.0468 19.462 15.3619 19.4493 15.9043C19.2669 16.1842 19.0377 16.2272 18.7618 16.0332C18.5913 15.2271 18.8849 14.647 19.6427 14.293C19.7634 14.2594 19.878 14.2235 19.9865 14.1855Z" fill="#3D3D3D"/>
<path opacity="0.945" fill-rule="evenodd" clip-rule="evenodd" d="M14.4859 18.2246C16.1331 18.2174 17.7802 18.2246 19.4273 18.2461C19.5347 18.2962 19.6134 18.375 19.6636 18.4824C19.6509 19.9041 18.9706 20.8423 17.6226 21.2969C16.1643 21.5595 15.0972 21.0367 14.4214 19.7285C14.2469 19.3146 14.1896 18.885 14.2495 18.4395C14.3076 18.3428 14.3864 18.2712 14.4859 18.2246ZM15.0015 19.041C15.1972 19.7455 15.6412 20.2252 16.3335 20.4805C17.6082 20.7382 18.4532 20.2512 18.8687 19.0195C17.5723 18.9838 16.2833 18.991 15.0015 19.041Z" fill="#3D3D3D"/>
</svg>
