<svg width="20" height="20" viewBox="0 0 20 20" fill="none" xmlns="http://www.w3.org/2000/svg">
<path d="M3.57782 0.0585766C3.26142 0.140608 2.9372 0.320295 2.60517 0.605452C2.23798 0.921858 0.921574 2.2617 0.706731 2.53905C-0.164363 3.65233 -0.179988 5.3828 0.663762 7.61717C1.69111 10.3476 3.61689 13.1133 6.05439 15.3594C9.41376 18.457 13.9138 20.4609 16.2302 19.8984C16.5739 19.8164 17.1442 19.5508 17.4059 19.3515C17.6716 19.1523 19.4372 17.3398 19.6013 17.1015C19.9059 16.6601 20.0231 16.0703 19.9059 15.5703C19.7731 15.0117 19.7302 14.9609 18.0309 13.2578C16.3161 11.543 16.2614 11.5 15.695 11.3828C15.2458 11.289 14.7888 11.3711 14.3474 11.625C14.2458 11.6875 13.7614 12.1289 13.2731 12.6133L12.3864 13.4883L12.1013 13.3398C11.402 12.9765 10.8864 12.6289 10.1169 11.9961C9.32782 11.3476 8.22626 10.2109 7.61689 9.41404C7.17548 8.83592 6.52704 7.76951 6.52314 7.62498C6.52314 7.59764 6.82782 7.27733 7.19892 6.91405C7.98017 6.15233 8.28876 5.79686 8.46454 5.46092C8.68329 5.03514 8.72626 4.49608 8.57392 4.05076C8.42157 3.59764 8.27314 3.42576 6.78095 1.92967C5.30439 0.453108 5.07782 0.257795 4.65595 0.113264C4.36298 0.00779533 3.87861 -0.0156422 3.57782 0.0585766ZM4.48407 1.15623C4.59345 1.21873 5.21845 1.80858 6.05829 2.65233C7.57782 4.17576 7.63642 4.24608 7.63251 4.64842C7.63251 5.00389 7.53876 5.12889 6.51923 6.14842C6.00361 6.66014 5.55439 7.1328 5.52314 7.1992C5.47626 7.28123 5.46454 7.39451 5.47626 7.58592C5.48798 7.8203 5.51923 7.91014 5.75751 8.38279C6.29657 9.45311 7.00751 10.3945 8.18329 11.5976C9.35126 12.793 10.5153 13.6836 11.7145 14.3008C12.1403 14.5195 12.2224 14.5508 12.4177 14.5469C12.5505 14.5469 12.6911 14.5195 12.7731 14.4765C12.8474 14.4375 13.3317 13.9844 13.8474 13.4726C14.5114 12.8125 14.8356 12.5195 14.9606 12.4648C15.195 12.3594 15.4997 12.3594 15.7145 12.4648C15.9489 12.582 18.7106 15.3398 18.8317 15.582C18.8981 15.7109 18.9255 15.8281 18.9255 15.9961C18.9255 16.3984 18.8434 16.5078 17.7341 17.6211C16.6364 18.7226 16.5349 18.7969 15.9489 18.9297C15.3825 19.0547 14.4333 18.9531 13.4724 18.6679C12.0075 18.2344 10.0388 17.1953 8.41767 16C5.29657 13.7031 2.61689 10.1914 1.50361 6.9453C0.972355 5.40233 0.913762 4.29686 1.32001 3.47655C1.44501 3.21483 1.5622 3.08201 2.3747 2.2578C2.8747 1.74998 3.35517 1.28905 3.4372 1.23045C3.78876 0.988264 4.14814 0.96092 4.48407 1.15623Z" fill="white"/>
</svg>
